HIERARCHY
ROOT Hips
{
  OFFSET -125.086 92.215 135.881
  CHANNELS 6 Xposition Yposition Zposition Zrotation Xrotation Yrotation
  JOINT LeftUpLeg
  {
    OFFSET 8.64259 1.95398 -2.38835
    CHANNELS 3 Zrotation Xrotation Yrotation
    JOINT LeftLeg
    {
      OFFSET 43.7702 0 0
      CHANNELS 3 Zrotation Xrotation Yrotation
      JOINT LeftFoot
      {
        OFFSET 40.6238 0 0
        CHANNELS 3 Zrotation Xrotation Yrotation
        JOINT LeftToeBase
        {
          OFFSET 12.7242 0 0
          CHANNELS 3 Zrotation Xrotation Yrotation
          End Site
          {
            OFFSET 0 0 0
          }
        }
      }
    }
  }
  JOINT RightUpLeg
  {
    OFFSET -8.2249 1.95398 -2.59336
    CHANNELS 3 Zrotation Xrotation Yrotation
    JOINT RightLeg
    {
      OFFSET 43.5653 0 0
      CHANNELS 3 Zrotation Xrotation Yrotation
      JOINT RightFoot
      {
        OFFSET 40.6238 0 0
        CHANNELS 3 Zrotation Xrotation Yrotation
        JOINT RightToeBase
        {
          OFFSET 12.7242 0 0
          CHANNELS 3 Zrotation Xrotation Yrotation
          End Site
          {
            OFFSET 0 0 0
          }
        }
      }
    }
  }
  JOINT Spine
  {
    OFFSET 0.165834 0.87714 6.61349
    CHANNELS 3 Zrotation Xrotation Yrotation
    JOINT Spine1
    {
      OFFSET 7.38963 1.71661e-005 0
      CHANNELS 3 Zrotation Xrotation Yrotation
      JOINT Spine2
      {
        OFFSET 11.9445 1.14441e-005 0
        CHANNELS 3 Zrotation Xrotation Yrotation
        JOINT Spine3
        {
          OFFSET 14.7254 4.19617e-005 0
          CHANNELS 3 Zrotation Xrotation Yrotation
          JOINT Spine4
          {
            OFFSET 10.9679 0 0
            CHANNELS 3 Zrotation Xrotation Yrotation
            JOINT RightShoulder
            {
              OFFSET 2.46616 -1.6653 3.69651
              CHANNELS 3 Zrotation Xrotation Yrotation
              JOINT RightArm
              {
                OFFSET 13.0012 0 0
                CHANNELS 3 Zrotation Xrotation Yrotation
                JOINT RightForeArm
                {
                  OFFSET 28.7848 1.52588e-005 0
                  CHANNELS 3 Zrotation Xrotation Yrotation
                  JOINT RightHand
                  {
                    OFFSET 26.5688 1.52588e-005 0
                    CHANNELS 3 Zrotation Xrotation Yrotation
                    End Site
                    {
                      OFFSET 0 0 0
                    }
                  }
                }
              }
            }
            JOINT LeftShoulder
            {
              OFFSET 2.38034 -1.29275 -3.7523
              CHANNELS 3 Zrotation Xrotation Yrotation
              JOINT LeftArm
              {
                OFFSET 16.3182 6.10352e-005 0
                CHANNELS 3 Zrotation Xrotation Yrotation
                JOINT LeftForeArm
                {
                  OFFSET 27.0901 0 0
                  CHANNELS 3 Zrotation Xrotation Yrotation
                  JOINT LeftHand
                  {
                    OFFSET 24.5451 1.52588e-005 0
                    CHANNELS 3 Zrotation Xrotation Yrotation
                    End Site
                    {
                      OFFSET 0 0 0
                    }
                  }
                }
              }
            }
            JOINT Neck
            {
              OFFSET 5.0226 -0.0266342 0
              CHANNELS 3 Zrotation Xrotation Yrotation
              JOINT Head
              {
                OFFSET 6.69363 2.86102e-005 0
                CHANNELS 3 Zrotation Xrotation Yrotation
                End Site
                {
                  OFFSET 0 0 0
                }
              }
            }
          }
        }
      }
    }
  }
}
MOTION
Frames:	9
Frame Time:	0.0416667
-57.5902 97.7481 -20.2661 118.449 -84.161 119.993 -176.303 -0.127927 88.046 -11.7101 15.7961 2.91219 61.1437 5.8746 9.593 34.3008 -0.450042 -0.334596 177.425 5.0164 92.6297 -20.2853 -1.23285 -0.529417 63.989 0.270725 17.3881 25.7458 0.582791 -0.840742 -0.066693 6.99191 -90.2079 12.8895 -0.232012 -0.387617 1.21848 -0.248849 -0.377041 -21.3163 -0.104789 -0.449057 -1.30362 -0.104792 -0.449063 112.515 -55.5632 -67.1221 31.3077 4.41139 -13.8346 -0.312369 -30.4232 -9.09831 -12.7697 -0.927761 3.35363 -76.429 -45.1238 99.1444 -45.661 -6.36623 -22.9913 4.36109 60.6125 0.015879 -2.98761 -0.0599248 -10.0668 3.0966 -0.139826 -6.40162 -19.6941 -0.0157186 6.73202 
-57.6445 97.731 -20.2526 118.627 -84.1716 120.026 -176.49 -0.242705 87.8258 -11.5711 16.0443 2.99286 60.9351 5.85197 10.0897 34.3047 -0.382062 -1.27616 177.486 4.99033 92.5581 -20.1423 -1.39663 -0.632491 63.3243 0.599322 18.1389 27.7797 0.610336 -4.14166 -0.0683479 7.00871 -90.2145 12.8558 -0.238394 -0.40014 1.1848 -0.255773 -0.389264 -21.3499 -0.107123 -0.449057 -1.33725 -0.107117 -0.449063 112.205 -55.2794 -67.5212 31.3508 4.13949 -13.7657 -0.212649 -29.211 -9.19289 -12.4839 -0.822144 2.55011 -76.3603 -45.619 99.2413 -46.08 -7.04559 -23.0678 5.29835 61.3325 0.0162427 -3.0804 -0.0501265 -10.9188 3.93399 0.0457262 -5.64441 -20.4333 0.133111 6.08579 
-57.6906 97.719 -20.1888 117.845 -84.1548 119.27 -176.231 0.597015 87.9667 -12.9022 16.8651 2.73445 60.3664 5.36581 11.342 35.1669 -0.61366 1.09658 177.465 5.03762 92.6519 -20.277 -2.48384 -0.564768 63.6572 0.144497 16.602 27.0257 0.5197 -2.13227 -0.0751553 7.0262 -90.2104 12.8209 -0.249944 -0.390737 1.14992 -0.266901 -0.379364 -21.3848 -0.120965 -0.449057 -1.37218 -0.12096 -0.449063 112.306 -55.3186 -67.3822 31.3308 3.81987 -13.9296 -0.05222 -28.5322 -9.1474 -13.1597 -0.776074 1.71221 -76.3779 -45.4643 99.2175 -47.0055 -7.65639 -23.4522 6.44615 62.2452 0.0167323 -2.88265 -0.0591249 -11.4121 5.01698 -0.0479619 -6.42433 -21.6745 0.0120118 7.09098 
-57.7368 97.6951 -20.1282 116.87 -84.1515 118.32 -176.245 0.52398 87.9738 -12.6857 16.662 2.75503 60.5902 5.56965 11.2926 33.9416 -0.471979 0.435055 177.576 5.04206 92.733 -20.1378 -1.98697 -0.631879 63.4695 0.331387 17.1762 27.4133 0.64221 -3.87796 -0.0898845 7.02815 -90.2048 12.817 -0.276531 -0.376382 1.146 -0.292829 -0.363852 -21.3888 -0.150631 -0.441875 -1.37616 -0.150635 -0.441881 112.295 -55.3636 -67.4063 31.3961 3.70852 -13.9488 0.0850416 -28.3743 -9.07088 -13.522 -0.82039 1.91377 -76.2727 -45.4148 99.3881 -46.9709 -7.60697 -23.445 6.42826 62.3853 0.0168104 -2.75994 -0.0665861 -11.4369 4.83248 -0.0757782 -6.67642 -21.3911 0.00276659 7.31012 
-57.7653 97.6703 -20.0953 115.125 -84.0729 116.565 -176.458 0.496391 87.891 -12.4503 16.8061 2.93043 60.4659 5.57427 11.4047 35.7252 -0.615465 0.3931 177.529 5.30125 92.7084 -20.5001 -1.21125 -0.577965 63.6857 0.42793 17.8571 27.3157 0.47177 -2.15934 -0.103953 7.01863 -90.2148 12.8359 -0.309272 -0.39235 1.16495 -0.326236 -0.378368 -21.3699 -0.177059 -0.467158 -1.35721 -0.177059 -0.467167 111.993 -55.1818 -67.8118 31.6634 3.89261 -13.6917 -0.110393 -28.4715 -9.2125 -13.5149 -0.834967 2.04588 -76.2372 -45.6907 99.437 -46.6289 -7.53322 -23.4624 6.24156 62.221 0.0167189 -2.56992 -0.0782513 -11.4866 4.16153 -0.160313 -6.65136 -20.5655 -0.133415 7.73202 
-57.8206 97.6691 -20.0638 115.507 -83.9944 116.954 -176.36 0.441713 87.9381 -12.5558 17.0462 2.89689 60.5043 5.63147 11.5747 36.3035 -0.656316 0.258498 177.632 5.25327 92.8072 -20.578 -0.727204 -0.655112 63.8278 0.338618 18.1006 27.7666 0.413958 -2.35835 -0.114445 7.05027 -90.2071 12.7727 -0.326303 -0.375127 1.10173 -0.342493 -0.360405 -21.4331 -0.198478 -0.455854 -1.42049 -0.198481 -0.455852 112.05 -55.294 -67.7488 31.5398 3.62195 -13.791 0.147764 -28.1746 -9.05669 -13.7923 -0.8232 1.79286 -76.1754 -45.644 99.537 -46.6616 -7.52297 -23.5263 6.26315 62.02 0.0166084 -2.75123 -0.0656941 -11.8904 4.34776 -0.11582 -6.3032 -20.7465 -0.05868 7.10365 
-57.9368 97.6253 -20.0145 116.702 -83.8365 118.127 -176.054 -0.0350514 88.1498 -11.9987 17.5053 2.73176 60.6491 5.87625 11.8288 35.7672 -0.641298 0.633727 177.515 5.3406 92.8085 -21.1571 -0.0419558 -0.530099 63.8274 0.433188 18.5872 28.5314 0.331707 -2.90625 -0.109289 7.10637 -90.2034 12.6605 -0.314107 -0.369561 0.989557 -0.330072 -0.355386 -21.5453 -0.188526 -0.44688 -1.53266 -0.188522 -0.446877 112.077 -55.2071 -67.6946 31.8952 3.77815 -13.7307 -0.149081 -28.3468 -9.35652 -13.7277 -0.835272 1.93302 -76.3228 -45.5818 99.3027 -46.8891 -7.58202 -23.6922 6.51649 62.0167 0.0166066 -3.01458 -0.0464887 -12.1728 5.03683 -0.266563 -6.8211 -21.6654 -0.228595 7.71123 
-58.1012 97.5437 -19.9682 117.432 -83.6809 118.812 -175.763 0.753274 88.3432 -13.8261 17.8227 2.57401 61.018 5.77278 11.8319 34.7252 -0.567483 0.93319 177.684 5.56042 93.0116 -21.9677 -0.451259 -0.643505 64.1705 -0.0387869 17.9018 27.9017 0.396603 -2.441 -0.113046 7.14299 -90.1808 12.5874 -0.310712 -0.324946 0.916478 -0.324712 -0.310961 -21.6185 -0.1987 -0.403307 -1.60585 -0.19869 -0.403302 112.215 -55.4043 -67.5291 31.6942 3.90094 -13.634 -0.466956 -29.0102 -9.72494 -13.0567 -0.775738 1.76709 -76.3817 -45.5346 99.2096 -46.7325 -7.51304 -23.8403 6.39724 61.9955 0.016595 -3.28438 -0.0302383 -11.9168 4.51451 -0.262483 -6.92493 -20.9008 -0.156032 7.51826 
-58.3434 97.5044 -19.9433 119.605 -83.3453 120.878 -175.349 0.76946 88.6249 -14.4688 18.0676 2.33836 61.1138 5.66431 11.7357 35.4765 -0.599971 0.477787 177.453 5.57931 93.062 -22.8482 -1.59967 -0.391088 64.4118 -0.674817 16.1105 29.3742 0.133065 -2.41837 -0.154861 7.22955 -90.1367 12.4144 -0.372641 -0.230421 0.743488 -0.382432 -0.213803 -21.7918 -0.28617 -0.331767 -1.77914 -0.286173 -0.331766 112.309 -55.4762 -67.4052 31.728 3.70588 -13.8737 -0.506114 -29.0982 -9.78409 -12.4328 -0.699641 1.39988 -76.4026 -45.2984 99.1821 -46.7617 -7.43153 -23.9269 6.43769 61.8506 0.0165165 -2.60624 -0.0743562 -12.2849 4.96209 -0.160708 -6.58154 -21.4126 -0.0107052 6.78847 
